<svg width="5" height="10" viewBox="0 0 5 10" fill="none" xmlns="http://www.w3.org/2000/svg">
<path d="M4.38844 3.48594L1.18902 0.207689C1.05842 0.0746653 0.881748 0 0.697599 0C0.513451 0 0.336784 0.0746653 0.206184 0.207689C0.140851 0.274084 0.0889955 0.353078 0.0536076 0.440111C0.0182196 0.527145 0 0.620497 0 0.714783C0 0.809068 0.0182196 0.90242 0.0536076 0.989454C0.0889955 1.07649 0.140851 1.15548 0.206184 1.22188L3.41258 4.49299C3.47791 4.55938 3.52977 4.63838 3.56516 4.72541C3.60055 4.81244 3.61877 4.9058 3.61877 5.00008C3.61877 5.09437 3.60055 5.18772 3.56516 5.27475C3.52977 5.36179 3.47791 5.44078 3.41258 5.50718L0.206184 8.77829C0.0749283 8.91183 0.000822451 9.09333 0.000168847 9.28286C-0.000484757 9.47238 0.072368 9.65441 0.202699 9.7889C0.333031 9.92339 0.510165 9.99933 0.695135 10C0.880105 10.0007 1.05776 9.92602 1.18902 9.79247L4.38844 6.51422C4.78004 6.11247 5 5.56789 5 5.00008C5 4.43228 4.78004 3.88769 4.38844 3.48594V3.48594Z" fill="white"/>
</svg>
