<?xml version="1.0" encoding="UTF-8"?>
<svg id="Calque_1" data-name="Calque 1" xmlns="http://www.w3.org/2000/svg" viewBox="0 0 473.95 275.68">
  <defs>
    <style>
      .cls-1 {
        fill: #fff;
      }
    </style>
  </defs>
  <path class="cls-1" d="M382.6,180.55c7.59,2.9,8.39-6.08,17.17-4.39,6.1-.01,1.21,4.34,9.84,.31,2.91-1.04,4.84,2.31,7.12-.69,.38-.26,1.68-.11,1.88,.46,1.08,9.04,15.25-1.71,13.9,10.54,3.59,.53,11.53-2.15,10.73,3.67-1.7,6.52,9.02-.69,7.87,11.06,10.98,1.5,7.58,8.74,8.71,16.64,3.76,4.63,9.1,6.32,2.52,11.59,8.78,11.62-2.19,11.72-.77,16.14,2.78,5.67-1.33,8.87-4.6,12.55-1.05,5.26-6.16,4.87-10.07,5.99,.72,4.79,.47,5.39-4.4,6.09-4.26,.56-9.11,.52-13.36,.59-1.73,4.2-6.23,3.5-8.83,.7-1.31-2.63-2.92-4.45-5.84-5.3-1.63-.81-2.26,.07-3.07,1.41-.84,1.39-4.38-.08-5.21-2-1.5-1.96-4.2-2.74-5.86-4.64,2.23,.13,4.47,.26,6.7,.39,.09-.38,.17-.75,.26-1.13-1.06-.43-2.16-1.31-3.19-1.23-10.76,1.5-4.46-19.51-13.29-12.36-4.05-17.92,14.42-42.8,31-26.03,12.31,13.56,3.81,26.8-1.23,11.21-2.6-7.54-9.15-7.41-10.03,.92-2.53,13.13,20.08,22.93,22.86,7.07,4.59-17.19-12.73-35.8-30.21-29.43-20.04,8.32-26.92,37.54-31.24,56.94-5.77-.74-58.52-10.63-51.14-19.13,17.18-25.55,33.57-53.31,61.79-67.92Z"/>
  <path class="cls-1" d="M105.63,265.83c-24.57-104.84-83.67-34.88-55.88-17.75,14.84,5.25,24.54-25.14,8.78-20-2.38,1.57-2,4.94-2.56,7.35-5.03,10.74-9.81-3.28-5.56-8.36,5.03-12.1,21.95-15.95,29.78-4.31,3.25,4.09,10.59,21.33,3.33,23.22-2.62,.42-4.4,2.99-3.79,5.68,1.23,6.23-5.81,5.34-7.83,14.09-3.23,10.04-6.98-2.93-12.01,2.82-3.1,2.41-6.23,4.8-9.24,7.11-.42-.26-.62-.31-.66-.41-.94-5.74-8.32-3.95-12.85-4.16-6.25,.54-8.36-6.39-13.49-8.44-3.62-1.18-5.34-3.55-6.87-6.86-2.28-2.56-3.61-5.19-1.86-8.73,.39-.79-.29-2.58-1.04-3.37-3.26-3.99-4.85-11.26-.78-15.09,1.4-1.22,1.39-2.62,.82-4.3-3.62-9.7,5.91-5.23,3.38-15.33-2.41-7.9,7.06-3.75,7.84-9.91,.18-1.55,.74-3.96,2.54-4.14,6.34,.38,3.93-9.46,10.9-8.35,5.21,.75,6.24-5.36,11.03-6.37,2.54-1.08,6.51,1.21,7.56-2.48,.19-.62,1.29-1.15,2.07-1.38,6.26-2.8,11.04,3.5,14.51,1.17,3.43-2.69,8.49-1.97,11.54,1.18,31.89,8.79,49.28,40.22,67.81,65.54,1.75,2.45,1.73,2.59-1.02,3.91-15.01,7.3-30.09,13.92-46.49,17.64Z"/>
  <path class="cls-1" d="M146.95,257.32c33.2-32.86,85.75-59.97,131.04-33.99,11.68,4.91,43.31,26.25,47.02,36.99-.21,.11-2.5-.36-2.71-.25-76.35-45.78-91.55-49.95-168.64-1.51"/>
  <path class="cls-1" d="M177.26,107.19c-7.57-23.96-20.45-45.36-41.13-60.07-2.44-3.42-.36-13.52-4.64-14.77-4.47,.06-9.92,3.38-9.12,9.99,2.4,10.18,13.9,15.09,18.59,24.06-13.9-3.48-29.32-13.53-28.79-29.33-4.43,.95-56.03,20.35-47.86,7.49,10.71-9.37,25.67-8.36,38.69-12.15,2.62-.61,5.43-2.02,7.31-3.91,9.51-9.59,20.73-10.83,32.85-6.96,11.66,4.19,8.84,18.89,12.4,28.24,12.48,17.06,24.25,35.21,21.7,57.39Z"/>
  <path class="cls-1" d="M301.03,106.71c-6.01-22.49,9.25-40.1,20.27-57.77,2.01-10.29,2.04-25.66,15-28.46,19.1-4.04,21.54,2.99,35.33,11.7,13.91,3.86,33.46,1.33,41.91,15.25,2.7,7.54-43.06-11.1-48.25-11.5-1.74,6.52-2.02,13.7-7.5,18.31-6.4,5.27-13.84,11.51-22.4,11.75,4.05-6.01,9.44-11.02,14.74-15.91,7.55-5.22,4.57-18.46-5.02-17.49-7.03,3.53,.84,12.15-9.71,18.59-17.51,13.8-29.53,33.88-34.36,55.53Z"/>
  <path class="cls-1" d="M29.98,177.66c-9.18,1.49-25.74,1.9-29.75-8.42-.65-2.71,.01-3.88,2.75-4.36,10.21-.59,18.64,7.91,27,12.78Z"/>
  <path class="cls-1" d="M331.94,16.23c-11.77,.65-19.51,9.8-28.21,16.51-20.93,8.97,2.83-21.65,28.33-17.26-.04,.25-.08,.5-.12,.75Z"/>
  <path class="cls-1" d="M31.3,154.63c-5.52-3.53-14.76-4.8-14.53-12.67,.29-3.11,5.67-6,7.89-3.01,2.89,4.84,9.7,9.66,6.64,15.68Z"/>
  <path class="cls-1" d="M445.32,154.39c-.92-6.95,6.31-20.64,14-15.25,5.08,8.57-8.14,12.41-14,15.25Z"/>
  <path class="cls-1" d="M451.91,179.05c5.2-6.33,12.82-16.73,21.26-11.02,1.3,.66,.91,3.81-.6,4.72-6.3,3.55-13.46,5.73-20.66,6.3Z"/>
  <path class="cls-1" d="M440.36,96.71c-6.13-16.52-21.21-33.6-39.79-34.52-1.12-2.33-3.5-3.44-7.03-3.57-4.49-.17-4.67,3.4-6.22,6-1.57-3.98-13.76-10.31-12.11-1.36-.93,.57-2.3,1.41-3.91,2.41-.8-5.43-6.69-6.72-10.37-3.11,2.5,1.58,2.78,3.12,1.42,5.4-1.6,3.59-13.86-6.62-11.36,1.42,.93-.28,1.87-.56,2.81-.84-1.19,1.74-3.48,2.59-2.93,5.27,.95,3.87-2.49,2.45-4.96,2.69-2.1,.22-5.07,2.85-4.85,4.75,1.46,8.9-11.23,7.28-7.42,15.09,.4,1.22,.29,1.96-.8,2.8-1.65,2.11-7.36,4.34-4.9,7.43,4.82,5.05-6.71,4.98-4.94,23.86,.12,.8,.02,2.05-.48,2.44-4.64,4.86-2.07,13.22-5.79,19.01-1.7,3.93,.54,8.65-3.33,12.24-2.22,.85-1.27,10.59-4.67,8.01-.38,.66-.72,1.26-.93,1.64h-2.33c.06,1,.1,1.74,.17,2.81-20.36-4.48-25.08-42.14-28.47-59.67-.04,.02-.08,.03-.12,.05-1.55-16.79,6.28-31.46,11.5-46.8,6.79-24.83-5.98-52.33-28.64-64.19-35.5-20.73-77.84,16.41-73.69,54.18,1.69,19.33,14.97,35.7,12.87,55.65-.02-.01-.05-.03-.07-.04,.32,19.55-24.03,94-38.59,41.8,1.02-2.69-.3-5.09-1.14-6.98-1.83-4.14-1.92-8.4-2.57-12.65-1.93-4.68-4.9-8.92-2.58-14.12,.07-.52-.28-1.16-.57-1.67-3.72-3.81-1.63-10.32-5.45-13.91-4.09-3,1.17-10.12-5.4-10.84-1.43-6.84-.17-10.53-8.49-8.96,1.94-3.85,4-7.62-1.57-10.06-.53,.27-1.2,.6-1.87,.94-1.56-1.67-3.7-2.87-2.83-5.63-4.44-5.87-8.06-11.44-12.56-1.58-1.2-4.11,1.22-11.7-4.46-11.31-2.75,.26-4.86,1.3-5.4,4.87-1.44-1.54-4.05-.52-3.83-3.15,.46-3.93-3.47-2.71-5.84-3.63-4.85-1.59-2.44,6.86-8.31,4.19,1.05-5.98-2.44-4.57-7.05-4.08-3.12,.44-5.68,4.12-8.19,4.46,.38-.52,.75-1.04,1.13-1.56-.13-.24-.26-.47-.4-.71-24.85,8.26-43.88,33.47-38.65,60.14,2.79,20.09,21.9,37.02,42.53,34.01,.05-.29,.09-.58,.14-.86-5.89-4.02-12.64-6.57-18.66-10.34-15.71-10.55-18.86-32.48-9.26-47.98,6.59-12.02,26.68-31.38,41.17-27.32-24.89,7.3-55.83,36.69-38.07,63.86,10.28,19.62,49.16,24.36,49.02-4.44-4.08-25.12-35.13-9.38-24.7-1.05,.5,.22,1.59-.61,2.26-1.15,11.01-11.23,21.23,7.62,9.39,13.46-17.03,6.36-32.71-12.77-29.19-27.65,3.04-20.6,32.43-22.42,44.13-8.17,5.41,5.96,7.55,13.32,7.53,21.21,.11,20-1.46,40-1.35,59.98,3.05,5.56,10.01,8.63,13.88,13.73,6.03,6.77,11.58,13.96,17.16,21.12,1.39,1.78,2.48,1.84,4.33,.98,27.58-12.58,44.8-39.24,52.18-67.93,2.69,31.66-24.18,61.45-51.49,74.05,3.35,3.36,9.78,16.56,13.63,16.61l14.45-9.63c44.38-35.13,82.98-29.14,127.76,1.06-7.99-27.09-23.13-53.57-23.7-82.07,12.83,30.2,23.23,61.48,38.08,90.79,5.39-2.11,7.56-7.11,10.68-11.07,8.35-10.6,16.1-21.69,24.59-32.17,3.58-6.46,17.28-12.26,16.53-18.64-1.32-19.94-1.36-39.99-1.24-59.97-.23-19.08,20.9-32.95,38.44-25.49,23.67,8.73,11.6,47.36-12.08,44.33-3.33-.38-7.1-1.03-8.56-4.87-.52-2.81-.72-8.75,3.81-7.19,3.11,.4,7.57,3.01,9.79-.31,4.34-15.82-29.73-10.36-20.88,9.24,24.07,38.67,99.71-28.62,8.99-70.6,.21-.37,.42-.73,.63-1.1,46.57,11.34,69.39,71.12,12.94,87.42,.09,.26,.17,.52,.26,.78,30.44,7.98,51.27-31.51,40.83-57.21ZM195.81,46.91c-1.52-4.67,5.11-16.34,5.11-16.34,9.66,1.54,17.2,5.92,24.51,12.26-.04,2.11-27.36,11-29.62,4.09Zm54.12-4.09c7.31-6.33,14.85-10.71,24.51-12.26,0,0,6.63,11.67,5.11,16.34-2.25,6.92-29.58-1.97-29.62-4.09Z"/>
</svg>