<?xml version="1.0" encoding="UTF-8"?>
<svg id="Calque_1" data-name="Calque 1" xmlns="http://www.w3.org/2000/svg" viewBox="0 0 485.58 374.95">
  <defs>
    <style>
      .cls-1 {
        fill: #fff;
      }
    </style>
  </defs>
  <path class="cls-1" d="M391.78,239.15c7.59,2.9,8.39-6.08,17.17-4.39,6.1-.01,1.21,4.34,9.84,.31,2.91-1.04,4.84,2.31,7.12-.69,.38-.26,1.68-.11,1.88,.46,1.08,9.04,15.25-1.71,13.9,10.54,3.59,.53,11.53-2.15,10.73,3.67-1.7,6.52,9.02-.69,7.87,11.06,10.98,1.5,7.58,8.74,8.71,16.64,3.76,4.63,9.1,6.32,2.52,11.59,8.78,11.62-2.19,11.72-.77,16.14,2.78,5.67-1.33,8.87-4.6,12.55-1.05,5.26-6.16,4.87-10.07,5.99,.72,4.79,.47,5.39-4.4,6.09-4.26,.56-9.11,.52-13.36,.59-1.73,4.2-6.23,3.5-8.83,.7-1.31-2.63-2.92-4.45-5.84-5.3-1.63-.81-2.26,.07-3.07,1.41-.84,1.39-4.38-.08-5.21-2-1.5-1.96-4.2-2.74-5.86-4.64,2.23,.13,4.47,.26,6.7,.39,.09-.38,.17-.75,.26-1.13-1.06-.43-2.16-1.31-3.19-1.23-10.76,1.5-4.46-19.51-13.29-12.36-4.05-17.92,14.42-42.8,31-26.03,12.31,13.56,3.81,26.8-1.23,11.21-2.6-7.54-9.15-7.41-10.03,.92-2.53,13.13,20.08,22.93,22.86,7.07,4.59-17.19-12.73-35.8-30.21-29.43-20.04,8.32-26.92,37.54-31.24,56.94-5.77-.74-58.52-10.63-51.14-19.13,17.18-25.55,33.57-53.31,61.79-67.92Z"/>
  <path class="cls-1" d="M114.82,324.43c-24.57-104.84-83.67-34.88-55.88-17.75,14.84,5.25,24.54-25.14,8.78-20-2.38,1.57-2,4.94-2.56,7.35-5.03,10.74-9.81-3.28-5.56-8.36,5.03-12.1,21.95-15.95,29.78-4.31,3.25,4.09,10.59,21.33,3.33,23.22-2.62,.42-4.4,2.99-3.79,5.68,1.23,6.23-5.81,5.34-7.83,14.09-3.23,10.04-6.98-2.93-12.01,2.82-3.1,2.41-6.23,4.8-9.24,7.11-.42-.26-.62-.31-.66-.41-.94-5.74-8.32-3.95-12.85-4.16-6.25,.54-8.36-6.39-13.49-8.44-3.62-1.18-5.34-3.55-6.87-6.86-2.28-2.56-3.61-5.19-1.86-8.73,.39-.79-.29-2.58-1.04-3.37-3.26-3.99-4.85-11.26-.78-15.09,1.4-1.22,1.39-2.62,.82-4.3-3.62-9.7,5.91-5.23,3.38-15.33-2.41-7.9,7.06-3.75,7.84-9.91,.18-1.55,.74-3.96,2.54-4.14,6.34,.38,3.93-9.46,10.9-8.35,5.21,.75,6.24-5.36,11.03-6.37,2.54-1.08,6.51,1.21,7.56-2.48,.19-.62,1.29-1.15,2.07-1.38,6.26-2.8,11.04,3.5,14.51,1.17,3.43-2.69,8.49-1.97,11.54,1.18,31.89,8.79,49.28,40.22,67.81,65.54,1.75,2.45,1.73,2.59-1.02,3.91-15.01,7.3-30.09,13.92-46.49,17.64Z"/>
  <path class="cls-1" d="M156.13,315.93c33.2-32.86,85.75-59.97,131.04-33.99,11.68,4.91,43.31,26.25,47.02,36.99-.21,.11-2.5-.36-2.71-.25-76.35-45.78-91.55-49.95-168.64-1.51"/>
  <path class="cls-1" d="M186.44,165.79c-7.57-23.96-20.45-45.36-41.13-60.07-2.44-3.42-.36-13.52-4.64-14.77-4.47,.06-9.92,3.38-9.12,9.99,2.4,10.18,13.9,15.09,18.59,24.06-13.9-3.48-29.32-13.53-28.79-29.33-4.43,.95-56.03,20.35-47.86,7.49,10.71-9.37,25.67-8.36,38.69-12.15,2.62-.61,5.43-2.02,7.31-3.91,9.51-9.59,20.73-10.83,32.85-6.96,11.66,4.19,8.84,18.89,12.4,28.24,12.48,17.06,24.25,35.21,21.7,57.39Z"/>
  <path class="cls-1" d="M310.21,165.31c-6.01-22.49,9.25-40.1,20.27-57.77,2.01-10.29,2.04-25.66,15-28.46,19.1-4.04,21.54,2.99,35.33,11.7,13.91,3.86,33.46,1.33,41.91,15.25,2.7,7.54-43.06-11.1-48.25-11.5-1.74,6.52-2.02,13.7-7.5,18.31-6.4,5.27-13.84,11.51-22.4,11.75,4.05-6.01,9.44-11.02,14.74-15.91,7.55-5.22,4.57-18.46-5.02-17.49-7.03,3.53,.84,12.15-9.71,18.59-17.51,13.8-29.53,33.88-34.36,55.53Z"/>
  <path class="cls-1" d="M39.16,236.26c-9.18,1.49-25.74,1.9-29.75-8.42-.65-2.71,.01-3.88,2.75-4.36,10.21-.59,18.64,7.91,27,12.78Z"/>
  <path class="cls-1" d="M341.12,74.83c-11.77,.65-19.51,9.8-28.21,16.51-20.93,8.97,2.83-21.65,28.33-17.26-.04,.25-.08,.5-.12,.75Z"/>
  <path class="cls-1" d="M40.48,213.23c-5.52-3.53-14.76-4.8-14.53-12.67,.29-3.11,5.67-6,7.89-3.01,2.89,4.84,9.7,9.66,6.64,15.68Z"/>
  <path class="cls-1" d="M454.51,212.99c-.92-6.95,6.31-20.64,14-15.25,5.08,8.57-8.14,12.41-14,15.25Z"/>
  <path class="cls-1" d="M461.09,237.65c5.2-6.33,12.82-16.73,21.26-11.02,1.3,.66,.91,3.81-.6,4.72-6.3,3.55-13.46,5.73-20.66,6.3Z"/>
  <path class="cls-1" d="M449.55,155.31c-6.13-16.52-21.21-33.6-39.79-34.52-1.12-2.33-3.5-3.44-7.03-3.57-4.49-.17-4.67,3.4-6.22,6-1.57-3.98-13.76-10.31-12.11-1.36-.93,.57-2.3,1.41-3.91,2.41-.8-5.43-6.69-6.72-10.37-3.11,2.5,1.58,2.78,3.12,1.42,5.4-1.6,3.59-13.86-6.62-11.36,1.42,.93-.28,1.87-.56,2.81-.84-1.19,1.74-3.48,2.59-2.93,5.27,.95,3.87-2.49,2.45-4.96,2.69-2.1,.22-5.07,2.85-4.85,4.75,1.46,8.9-11.23,7.28-7.42,15.09,.4,1.22,.29,1.96-.8,2.8-1.65,2.11-7.36,4.34-4.9,7.43,4.82,5.05-6.71,4.98-4.94,23.86,.12,.8,.02,2.05-.48,2.44-4.64,4.86-2.07,13.22-5.79,19.01-1.7,3.93,.54,8.65-3.33,12.24-2.22,.85-1.27,10.59-4.67,8.01-.38,.66-.72,1.26-.93,1.64h-2.33c.06,1,.1,1.74,.17,2.81-20.36-4.48-25.08-42.14-28.47-59.67-.04,.02-.08,.03-.12,.05-1.55-16.79,6.28-31.46,11.5-46.8,6.79-24.83-5.98-52.33-28.64-64.19-35.5-20.73-77.84,16.41-73.69,54.18,1.69,19.33,14.97,35.7,12.87,55.65-.02-.01-.05-.03-.07-.04,.32,19.55-24.03,94-38.59,41.8,1.02-2.69-.3-5.09-1.14-6.98-1.83-4.14-1.92-8.4-2.57-12.65-1.93-4.68-4.9-8.92-2.58-14.12,.07-.52-.28-1.16-.57-1.67-3.72-3.81-1.63-10.32-5.45-13.91-4.09-3,1.17-10.12-5.4-10.84-1.43-6.84-.17-10.53-8.49-8.96,1.94-3.85,4-7.62-1.57-10.06-.53,.27-1.2,.6-1.87,.94-1.56-1.67-3.7-2.87-2.83-5.63-4.44-5.87-8.06-11.44-12.56-1.58-1.2-4.11,1.22-11.7-4.46-11.31-2.75,.26-4.86,1.3-5.4,4.87-1.44-1.54-4.05-.52-3.83-3.15,.46-3.93-3.47-2.71-5.84-3.63-4.85-1.59-2.44,6.86-8.31,4.19,1.05-5.98-2.44-4.57-7.05-4.08-3.12,.44-5.68,4.12-8.19,4.46,.38-.52,.75-1.04,1.13-1.56-.13-.24-.26-.47-.4-.71-24.85,8.26-43.88,33.47-38.65,60.14,2.79,20.09,21.9,37.02,42.53,34.01,.05-.29,.09-.58,.14-.86-5.89-4.02-12.64-6.57-18.66-10.34-15.71-10.55-18.86-32.48-9.26-47.98,6.59-12.02,26.68-31.38,41.17-27.32-24.89,7.3-55.83,36.69-38.07,63.86,10.28,19.62,49.16,24.36,49.02-4.44-4.08-25.12-35.13-9.38-24.7-1.05,.5,.22,1.59-.61,2.26-1.15,11.01-11.23,21.23,7.62,9.39,13.46-17.03,6.36-32.71-12.77-29.19-27.65,3.04-20.6,32.43-22.42,44.13-8.17,5.41,5.96,7.55,13.32,7.53,21.21,.11,20-1.46,40-1.35,59.98,3.05,5.56,10.01,8.63,13.88,13.73,6.03,6.77,11.58,13.96,17.16,21.12,1.39,1.78,2.48,1.84,4.33,.98,27.58-12.58,44.8-39.24,52.18-67.93,2.69,31.66-24.18,61.45-51.49,74.05,3.35,3.36,9.78,16.56,13.63,16.61l14.45-9.63c44.38-35.13,82.98-29.14,127.76,1.06-7.99-27.09-23.13-53.57-23.7-82.07,12.83,30.2,23.23,61.48,38.08,90.79,5.39-2.11,7.56-7.11,10.68-11.07,8.35-10.6,16.1-21.69,24.59-32.17,3.58-6.46,17.28-12.26,16.53-18.64-1.32-19.94-1.36-39.99-1.24-59.97-.23-19.08,20.9-32.95,38.44-25.49,23.67,8.73,11.6,47.36-12.08,44.33-3.33-.38-7.1-1.03-8.56-4.87-.52-2.81-.72-8.75,3.81-7.19,3.11,.4,7.57,3.01,9.79-.31,4.34-15.82-29.73-10.36-20.88,9.24,24.07,38.67,99.71-28.62,8.99-70.6,.21-.37,.42-.73,.63-1.1,46.57,11.34,69.39,71.12,12.94,87.42,.09,.26,.17,.52,.26,.78,30.44,7.98,51.27-31.51,40.83-57.21Zm-244.56-49.8c-1.52-4.67,5.11-16.34,5.11-16.34,9.66,1.54,17.2,5.92,24.51,12.26-.04,2.11-27.36,11-29.62,4.09Zm54.12-4.09c7.31-6.33,14.85-10.71,24.51-12.26,0,0,6.63,11.67,5.11,16.34-2.25,6.92-29.58-1.97-29.62-4.09Z"/>
  <g>
    <path class="cls-1" d="M159.76,46.16s.05,.02,.08,.03c-.22,.49-.24,1.64,.03,2.26,2.51,5.81,3.76,8.71,6.27,14.51,.27,.62,.41,1.79,.18,2.26-.03-.01-.05-.02-.08-.03,.19-.48,1.18-1.25,1.85-1.53,2.06-.87,3.1-1.29,5.18-2.11,.68-.27,1.58-1.04,1.83-1.49,.03,.01,.05,.02,.08,.03-.21,.47-.23,1.6,0,2.23,.26,.69,.39,1.03,.66,1.71,.24,.63,1,1.46,1.46,1.68-.01,.03-.02,.04-.04,.07-.48-.18-1.64-.16-2.31,.1-4.11,1.61-6.14,2.47-10.18,4.31-.65,.3-1.48,1.12-1.69,1.59-.03-.01-.05-.02-.08-.03,.17-.48,.1-1.61-.18-2.22-3.46-7.42-5.19-11.13-8.64-18.56-.29-.61-1.15-1.36-1.67-1.53,.01-.03,.02-.05,.04-.08,.54,.12,1.82-.04,2.55-.37,1.07-.49,1.6-.73,2.67-1.2,.73-.32,1.7-1.17,1.97-1.65Z"/>
    <path class="cls-1" d="M186.24,36.75s.05,.02,.08,.04c-.28,.46-.43,1.59-.24,2.24,.2,.71,.31,1.06,.51,1.76,.19,.65,.91,1.53,1.38,1.78-.02,.03-.03,.04-.05,.07-.49-.21-1.75-.26-2.49-.04-2.27,.68-3.4,1.03-5.66,1.77-.74,.24-2.06,.36-2.54,.14,.02-.03,.03-.04,.04-.07,.51,.19,1.2,1.14,1.42,1.79,.23,.69,.35,1.03,.58,1.71,.22,.64,.25,1.82-.03,2.28-.03-.01-.05-.02-.08-.03,.24-.47,1.34-1.17,2.06-1.4,2.06-.68,3.1-1,5.17-1.62,.72-.22,1.73-.92,2.03-1.36,.03,.01,.05,.02,.08,.04-.26,.46-.39,1.58-.2,2.23,.21,.7,.31,1.06,.51,1.76,.19,.65,.9,1.53,1.35,1.78-.02,.03-.03,.04-.04,.07-.48-.22-1.68-.28-2.39-.06-2.03,.61-3.04,.93-5.06,1.59-.7,.23-1.97,.33-2.44,.1,.02-.03,.02-.04,.04-.07,.49,.19,1.17,1.15,1.39,1.8,.24,.71,.36,1.06,.59,1.77,.22,.64,.26,1.82,0,2.27-.03-.01-.04-.02-.07-.03,.22-.46,1.27-1.14,1.96-1.37,2.11-.69,3.17-1.02,5.29-1.66,.69-.21,1.65-.9,1.94-1.33,.03,.02,.04,.02,.07,.04-.25,.45-.36,1.57-.17,2.22,.2,.71,.31,1.06,.51,1.76,.19,.65,.87,1.54,1.31,1.8-.02,.03-.02,.04-.04,.07-.46-.22-1.61-.3-2.29-.1-4.2,1.25-6.28,1.93-10.42,3.42-.67,.24-1.56,.99-1.8,1.44-.03-.01-.04-.02-.07-.03,.2-.47,.23-1.59,0-2.23-2.82-7.69-4.23-11.53-7.05-19.22-.23-.64-1.03-1.46-1.53-1.66,.02-.03,.03-.05,.04-.08,.52,.17,1.81,.12,2.55-.15,4.62-1.66,6.95-2.42,11.64-3.82,.76-.23,1.81-.94,2.13-1.39Z"/>
    <path class="cls-1" d="M196.78,34.07s.03-.04,.05-.07c.49,.23,1.76,.35,2.53,.18,2.42-.54,3.63-.79,6.05-1.26,7.25-1.4,14.03,2.65,14.91,9.37,.88,6.75-3.97,12.24-10.49,13.5-2.17,.42-3.26,.64-5.42,1.12-.69,.15-1.66,.78-1.95,1.2-.03-.02-.04-.03-.07-.04,.26-.44,.42-1.55,.27-2.21-1.83-7.98-2.75-11.97-4.59-19.95-.15-.66-.83-1.58-1.3-1.84Zm10.52,17.64s-.06-.04-.1-.06c.1-.13,.47-.27,.67-.31,.16-.03,.25-.05,.41-.08,4.09-.8,6.43-4.21,5.83-8.04-.6-3.83-4.1-6.37-8.49-5.51-.18,.03-.26,.05-.44,.09-.22,.04-.64,.07-.79-.02,.03-.04,.05-.06,.08-.1,.15,.09,.28,.43,.32,.6,1.02,5.09,1.54,7.64,2.56,12.73,.04,.19,.05,.57-.04,.7Z"/>
    <path class="cls-1" d="M234.16,28.86c7.46-.45,13.52,4.84,13.52,11.65,0,6.8-5.18,12.03-12.06,12.45-7.08,.43-12.69-4.14-13.52-10.9-.82-6.75,4.67-12.75,12.06-13.2Zm1.15,18.97c4.47-.27,6.22-3.76,6.11-7.23-.1-3.47-2.31-6.92-6.95-6.64-4.61,.28-6.45,3.97-6.13,7.43,.32,3.46,2.39,6.71,6.97,6.43Z"/>
    <path class="cls-1" d="M254.79,33.34s.06-.02,.1-.03c.69,2.25,1.19,6.26,1.07,9.36-.13,3.3-.2,4.94-.33,8.24-.03,.68,.34,1.74,.67,2.12-.02,.02-.04,.03-.06,.05-.36-.35-1.42-.79-2.12-.81-1.03-.03-1.54-.05-2.56-.07-.7-.01-1.78,.37-2.16,.7-.02-.02-.03-.03-.06-.06,.35-.36,.77-1.4,.78-2.08,.1-8.19,.15-12.28,.25-20.47,0-.68-.43-1.73-.82-2.1,.03-.02,.04-.03,.07-.06,.42,.34,1.62,.75,2.4,.77,1.44,.03,2.17,.05,3.61,.1,.26,0,.92-.16,1.05-.3,.04,.01,.06,.02,.1,.03-.1,.17,.03,.76,.19,.97,2.72,4.02,4.01,6.06,6.47,10.16,1.63,2.73,3.06,6.51,3.53,8.77-.05,0-.07,.01-.12,.02-.48-2.26-.77-6.25-.5-9.32,.3-3.28,.45-4.93,.75-8.21,.06-.68-.3-1.76-.66-2.15,.04-.02,.06-.03,.1-.05,.36,.37,1.53,.87,2.31,.94,1.14,.11,1.71,.17,2.85,.29,.78,.08,2.02-.17,2.48-.46,.02,.03,.03,.04,.06,.06-.43,.32-1.01,1.3-1.08,1.98-.94,8.13-1.41,12.2-2.36,20.33-.08,.67,.21,1.76,.51,2.16-.03,.02-.04,.03-.06,.05-.34-.38-1.36-.9-2.06-.97-1.29-.14-1.93-.2-3.22-.32-.23-.02-.83,.12-.96,.25-.03-.01-.05-.02-.08-.04,.1-.16,0-.76-.12-.97-2.25-4.12-3.45-6.16-5.96-10.21-1.67-2.69-3.38-6.45-4.04-8.71Z"/>
    <path class="cls-1" d="M289.67,32.12s.03,.04,.05,.07c-.46,.29-1.1,1.23-1.22,1.89-1.13,6.02-1.69,9.02-2.82,15.04-.84,4.5-3.93,6.35-8.68,5.64-3.32-.49-5.2-2.84-5.31-2.96-.18-.22-.06,.22-.17,.41-.05-.02-.07-.03-.11-.04,.11-.19,.58-.9,.7-1.14,.75-1.36,1.13-2.05,1.9-3.4,0,0,1.55,1.8,2.97,2,1.6,.23,2.95-.49,3.32-2.81,.88-5.51,1.32-8.26,2.19-13.77,.11-.67-.18-1.77-.51-2.2,.03-.02,.04-.03,.07-.05,.37,.4,1.5,.98,2.27,1.11,1.13,.19,1.7,.29,2.83,.49,.77,.14,2.03-.03,2.51-.28Z"/>
    <path class="cls-1" d="M304.48,35.8c7.28,1.92,11.46,8.87,9.32,15.33-2.13,6.46-8.75,9.78-15.47,8.01-6.92-1.82-10.83-7.91-9.5-14.59,1.33-6.67,8.43-10.66,15.65-8.76Zm-4.84,18.38c4.36,1.15,7.13-1.61,8.12-4.94,.99-3.33-.05-7.3-4.58-8.5-4.5-1.19-7.41,1.75-8.19,5.13-.78,3.38,.18,7.12,4.65,8.3Z"/>
    <path class="cls-1" d="M322.89,46.59s.06,0,.1,0c-.04,2.36-.81,6.32-1.9,9.23-1.16,3.09-1.74,4.63-2.89,7.72-.24,.63-.22,1.76-.02,2.23-.03,.01-.05,.02-.08,.03-.24-.45-1.13-1.21-1.79-1.45-.98-.36-1.47-.53-2.45-.88-.67-.24-1.83-.22-2.3-.02-.02-.03-.02-.04-.04-.07,.45-.23,1.18-1.09,1.4-1.73,2.66-7.74,3.99-11.62,6.65-19.36,.22-.64,.12-1.78-.13-2.25,.03-.01,.05-.02,.08-.03,.3,.46,1.32,1.23,2.07,1.49,1.38,.49,2.07,.74,3.45,1.25,.25,.09,.94,.14,1.11,.05,.03,.02,.05,.04,.08,.06-.15,.12-.21,.74-.12,.98,1.36,4.69,1.97,7.04,3.06,11.72,.73,3.11,.92,7.17,.67,9.47-.05,0-.07-.01-.12-.02,.25-2.3,1.21-6.18,2.43-9.01,1.32-3.02,1.98-4.53,3.3-7.56,.27-.62,.26-1.77,.03-2.26,.05,0,.07,0,.11-.01,.23,.47,1.21,1.32,1.94,1.64,1.07,.47,1.6,.71,2.67,1.2,.73,.33,2.01,.49,2.55,.37,.01,.03,.02,.05,.04,.08-.52,.16-1.38,.91-1.67,1.53-3.46,7.42-5.19,11.13-8.64,18.56-.29,.61-.35,1.74-.18,2.22-.03,.01-.05,.02-.08,.03-.21-.47-1.04-1.3-1.69-1.59-1.2-.55-1.81-.82-3.02-1.35-.22-.1-.84-.15-1.01-.07-.03-.02-.04-.04-.07-.06,.15-.12,.25-.72,.19-.96-.89-4.64-1.4-6.96-2.56-11.61-.77-3.09-1.24-7.21-1.17-9.56Z"/>
  </g>
  <g>
    <path class="cls-1" d="M147.86,324.87s.02-.05,.03-.08c.52,.12,1.75-.04,2.44-.35,2.19-1,3.29-1.49,5.5-2.43,6.61-2.81,13.85-.39,16.04,5.75,2.2,6.17-1.3,12.35-7.27,14.88-1.99,.85-2.98,1.28-4.95,2.18-.63,.29-1.43,1.08-1.62,1.53-.03,0-.04-.01-.07-.02,.16-.47,.1-1.55-.18-2.14-3.33-7.14-4.99-10.72-8.32-17.86-.28-.59-1.11-1.31-1.6-1.47Zm13.53,14.46s-.07-.02-.11-.04c.06-.15,.39-.35,.58-.43,.15-.06,.23-.1,.38-.16,3.74-1.6,5.28-5.29,3.94-8.78-1.34-3.49-5.17-5.16-9.18-3.44-.16,.07-.24,.1-.4,.17-.2,.09-.59,.2-.75,.15,.02-.04,.03-.07,.05-.11,.16,.05,.36,.35,.42,.5,1.99,4.59,2.98,6.88,4.97,11.47,.08,.17,.16,.52,.1,.67Z"/>
    <path class="cls-1" d="M191.39,309.6s.06,.02,.1,.03c-.32,.44-.48,1.51-.33,2.15,1.22,5.1,1.84,7.64,3.06,12.74,1.3,5.39-1.12,8.81-6.82,10.46-5.69,1.65-9.59,.05-11.37-5.2-1.68-4.96-2.52-7.44-4.21-12.41-.21-.62-.95-1.43-1.46-1.63,.03-.03,.04-.05,.07-.08,.47,.19,1.72,.16,2.44-.08,1.05-.35,1.58-.52,2.64-.86,.69-.22,1.72-.94,1.99-1.36,.04,0,.06,.01,.11,.02-.29,.46-.38,1.54-.19,2.16,1.37,4.43,2.06,6.65,3.43,11.09,1.11,3.58,2.59,4.25,5.15,3.51,2.56-.74,3.45-2.09,2.48-5.71-1.2-4.48-1.81-6.73-3.01-11.21-.17-.63-.85-1.49-1.34-1.72,.03-.03,.05-.05,.08-.08,.45,.22,1.7,.27,2.43,.08,1.07-.28,1.6-.42,2.68-.68,.7-.17,1.77-.82,2.06-1.23Z"/>
    <path class="cls-1" d="M230.88,328.17s-.03,.05-.05,.08c-1.31-.47-3.85-.91-5.72-.75-1.4,.12-2.09,.19-3.49,.34-.2,.02-.63,.2-.67,.32-.05,0-.07,0-.11-.01,.04-.14-.2-.53-.33-.65-2.53-2.26-3.83-3.36-6.49-5.54-1.82-1.47-3.88-3.79-4.78-5.27,.05-.02,.07-.03,.11-.05,.9,1.48,1.93,4.32,2.28,6.58,.27,1.78,.41,2.68,.68,4.46,.1,.64,.64,1.58,1.02,1.88-.02,.02-.03,.04-.05,.06-.41-.27-1.49-.49-2.16-.38-.98,.16-1.46,.24-2.44,.41-.66,.12-1.62,.67-1.92,1.06l-.07-.04c.27-.41,.48-1.47,.36-2.11-1.4-7.76-2.1-11.64-3.5-19.39-.12-.64-.73-1.55-1.16-1.83,.02-.03,.03-.04,.05-.06,.46,.25,1.67,.42,2.41,.29,1.08-.19,1.63-.28,2.71-.45,.74-.12,1.83-.67,2.18-1.05,.03,.02,.04,.03,.07,.04-.32,.41-.6,1.47-.5,2.11,.25,1.61,.37,2.42,.62,4.03,.35,2.31,.22,5.41-.16,7.15h-.12c.38-1.75,1.65-4.67,3.05-6.68,1.84-2.61,2.79-3.9,4.75-6.47,.11-.15,.27-.63,.2-.73,.05-.03,.07-.04,.12-.07,.08,.13,.62,.2,.81,.18,1.2-.13,1.81-.19,3.01-.31,2.02-.19,4.67-1,6.01-1.66,.03,.04,.04,.06,.07,.1-1.37,.64-3.53,2.23-4.7,3.67-2.61,3.25-3.86,4.89-6.27,8.21-.31,.42-1.12,1.1-1.53,1.15,0-.04,0-.06-.01-.11,.41-.05,1.37,.37,1.79,.7,3.73,3.03,5.53,4.59,8.99,7.79,1.39,1.25,3.61,2.51,4.92,3Z"/>
    <path class="cls-1" d="M226.83,304.22s.04-.04,.06-.06c.43,.3,1.61,.6,2.35,.55,3.05-.19,4.58-.25,7.63-.33,4.77-.13,8.36,2.19,8.31,6.59-.03,2.77-1.42,4.79-3.56,5.92-.67,.33-1.93,.7-2.49,.63,.01-.04,.02-.07,.03-.11,.56,.07,1.5,.63,2,1.17,2.14,2.35,3.18,3.54,5.2,5.95,1.14,1.38,3.11,2.82,4.29,3.41-.01,.04-.02,.06-.03,.11-1.2-.62-3.57-1.29-5.39-1.31-1.2-.01-1.8-.02-3-.01-.22,0-.73,.17-.78,.3-.04-.02-.07-.03-.11-.05,.08-.14-.12-.62-.23-.76-1.67-2.06-2.52-3.09-4.28-5.11-1.7-1.94-3.5-4.79-4.27-6.55,.05-.01,.07-.02,.12-.03,.77,1.76,1.49,4.99,1.59,7.49,.06,1.41,.09,2.12,.15,3.53,.03,.65,.46,1.64,.81,1.98-.02,.02-.03,.03-.05,.06-.38-.31-1.43-.65-2.1-.62-.99,.05-1.48,.07-2.46,.14-.67,.04-1.68,.49-2.02,.84-.02-.02-.04-.03-.06-.05,.31-.38,.63-1.41,.59-2.06-.54-7.86-.8-11.8-1.34-19.66-.04-.65-.55-1.62-.95-1.95Zm7.01,10.41s-.06-.05-.09-.08c.09-.09,.38-.12,.53-.13,.13,0,.2,0,.33-.01,2.11-.08,4.64-.26,4.59-3.06-.05-2.8-2.65-2.89-4.82-2.8-.13,0-.2,0-.34,.01-.15,0-.46,0-.55-.09,.04-.03,.05-.05,.09-.09,.1,.08,.14,.35,.14,.48l.22,5.27c0,.14-.01,.41-.1,.49Z"/>
    <path class="cls-1" d="M263.34,304.79s.05,.04,.09,.06c-.18,.2-.21,.94-.08,1.25,2.88,8.19,4.16,12.3,6.39,20.56,.31,1.08,1.22,2.5,1.84,3.06-.03,.03-.04,.04-.07,.07-.65-.56-2.17-1.29-3.31-1.44-1.04-.13-1.55-.2-2.59-.31-.36-.04-1.11,.12-1.3,.32-.03-.03-.05-.04-.08-.06,.19-.2,.27-.93,.17-1.29-.3-1.12-.45-1.67-.76-2.79-.11-.37-.11-1.16,.08-1.36,.03,.03,.05,.04,.08,.06-.19,.2-1.04,.3-1.41,.27-2.79-.27-4.18-.38-6.97-.55-.37-.02-1.19-.26-1.35-.49,.04-.02,.05-.03,.09-.05,.16,.23,.03,1.01-.13,1.35-.48,1.05-.72,1.58-1.19,2.63-.16,.35-.19,1.08-.04,1.3-.03,.02-.05,.03-.09,.05-.16-.23-.87-.5-1.24-.52-1.04-.05-1.56-.06-2.6-.1-1.15-.03-2.75,.45-3.49,.9-.02-.03-.03-.05-.05-.08,.7-.45,1.82-1.71,2.3-2.73,3.49-7.8,5.4-11.67,9.53-19.3,.17-.29,.25-1.02,.11-1.25,.04-.02,.06-.03,.1-.05,.14,.23,.9,.52,1.31,.55,1.32,.09,1.98,.15,3.29,.26,.4,.03,1.2-.14,1.38-.34Zm.03,14.86s-.04,.06-.07,.1c-.68-.53-1.6-1.98-1.96-3.02-.19-.58-.28-.88-.47-1.46-.69-2.1-1.07-5-.94-6.62,.05,0,.07,0,.12,0-.13,1.63-.93,4.42-1.94,6.4-.28,.55-.42,.82-.69,1.37-.48,.97-1.62,2.26-2.35,2.68-.03-.05-.05-.07-.08-.11,.76-.42,2.51-.71,3.67-.62,.47,.04,.7,.05,1.17,.09,1.17,.1,2.85,.66,3.53,1.19Z"/>
    <path class="cls-1" d="M294.14,334.56s-.05,.04-.08,.06c-1.11-.86-3.39-2.09-5.23-2.52-1.37-.32-2.06-.48-3.43-.78-.19-.04-.66,0-.74,.09-.04-.02-.06-.03-.1-.05,.08-.12-.02-.56-.11-.72-1.7-2.94-2.58-4.4-4.43-7.3-1.26-1.97-2.49-4.82-2.88-6.51,.05,0,.07,0,.12,0,.39,1.69,.47,4.71,.09,6.96-.3,1.78-.45,2.67-.76,4.45-.11,.64,.11,1.7,.38,2.11-.03,.02-.04,.03-.06,.04-.3-.38-1.26-.93-1.93-1.04-.98-.16-1.46-.24-2.44-.38-.67-.1-1.75,.13-2.15,.4-.02-.02-.03-.04-.05-.06,.38-.3,.91-1.24,1.01-1.89,1.12-7.8,1.68-11.7,2.8-19.51,.09-.65-.2-1.7-.52-2.11,.03-.02,.04-.03,.07-.05,.36,.38,1.45,.92,2.19,1.03,1.09,.16,1.63,.25,2.72,.43,.74,.12,1.94-.06,2.4-.31,.02,.03,.03,.04,.05,.06-.43,.28-1.03,1.2-1.14,1.84-.27,1.61-.41,2.41-.68,4.02-.39,2.3-1.5,5.2-2.4,6.74-.04-.02-.07-.03-.11-.05,.91-1.53,3.04-3.9,5-5.37,2.57-1.89,3.88-2.82,6.56-4.64,.15-.11,.46-.51,.42-.63,.05-.01,.08-.02,.13-.03,.03,.15,.53,.39,.71,.43,1.19,.26,1.78,.39,2.97,.66,1.99,.46,4.78,.53,6.27,.33,.01,.05,.02,.07,.03,.12-1.51,.17-4.08,.99-5.65,1.99-3.51,2.26-5.23,3.42-8.57,5.81-.43,.3-1.41,.69-1.82,.61,0-.04,.01-.06,.02-.11,.41,.08,1.18,.78,1.49,1.23,2.59,4.06,3.81,6.11,6.11,10.23,.93,1.62,2.65,3.52,3.76,4.41Z"/>
    <path class="cls-1" d="M313.66,315.16s.03,.04,.04,.07c-.47,.21-1.21,1.03-1.41,1.65-.22,.67-.33,1.01-.56,1.68-.21,.62-.11,1.71,.13,2.16-.03,.01-.05,.02-.08,.03-.28-.44-1.24-1.16-1.95-1.39-2.16-.7-3.25-1.04-5.42-1.68-.71-.21-1.81-.84-2.07-1.28,.03-.01,.04-.02,.07-.04,.3,.42,.32,1.56,.14,2.19-.19,.67-.29,1-.48,1.67-.18,.63-.8,1.58-1.26,1.79-.02-.03-.03-.04-.04-.07,.44-.24,1.69-.2,2.38,0,1.99,.59,2.99,.89,4.97,1.53,.69,.22,1.87,.21,2.35,.03,.02,.03,.02,.04,.04,.07-.46,.22-1.17,1.04-1.38,1.66-.22,.67-.33,1.01-.55,1.68-.2,.62-.12,1.7,.1,2.15-.03,.01-.04,.02-.07,.03-.26-.43-1.18-1.14-1.86-1.35-1.94-.62-2.91-.92-4.86-1.5-.68-.2-1.73-.81-1.98-1.25,.03-.01,.04-.02,.07-.04,.28,.42,.29,1.55,.11,2.18-.2,.69-.3,1.03-.5,1.72-.18,.63-.79,1.58-1.24,1.8-.02-.03-.02-.04-.04-.07,.43-.25,1.62-.21,2.29-.02,2.04,.6,3.06,.92,5.09,1.57,.66,.21,1.8,.19,2.26,0,.02,.03,.02,.04,.04,.07-.44,.22-1.14,1.05-1.35,1.67-.22,.67-.33,1.01-.56,1.68-.21,.62-.14,1.7,.06,2.14-.03,.01-.04,.02-.07,.03-.24-.43-1.12-1.12-1.77-1.33-4.01-1.3-6.03-1.89-10.09-2.97-.65-.17-1.76-.07-2.2,.16-.02-.03-.02-.04-.04-.07,.41-.26,1.05-1.13,1.21-1.77,1.97-7.63,2.96-11.45,4.94-19.08,.16-.63-.01-1.72-.29-2.15,.03-.01,.04-.02,.07-.04,.32,.42,1.35,1.08,2.07,1.27,4.52,1.2,6.76,1.86,11.23,3.31,.72,.23,1.95,.24,2.44,.06Z"/>
    <path class="cls-1" d="M318.65,322.11s.06,0,.1,0c-.05,2.27-.81,6.08-1.87,8.88-1.12,2.97-1.69,4.45-2.81,7.42-.23,.61-.21,1.69-.02,2.14-.03,.01-.04,.02-.07,.03-.23-.44-1.08-1.17-1.72-1.4-.94-.35-1.41-.52-2.35-.85-.64-.23-1.76-.22-2.21-.03-.01-.03-.02-.04-.04-.07,.44-.22,1.14-1.04,1.36-1.66,2.59-7.44,3.89-11.16,6.48-18.61,.21-.62,.13-1.71-.12-2.17,.03-.01,.05-.02,.08-.03,.28,.44,1.26,1.19,1.98,1.44,1.32,.47,1.98,.71,3.3,1.21,.24,.09,.9,.13,1.06,.05,.03,.02,.05,.04,.08,.06-.15,.12-.2,.71-.12,.94,1.28,4.51,1.86,6.77,2.89,11.28,.69,3,.86,6.9,.62,9.11-.05,0-.07-.01-.12-.02,.24-2.21,1.18-5.95,2.36-8.67,1.27-2.91,1.91-4.36,3.19-7.27,.26-.6,.25-1.7,.04-2.17,.04,0,.07,0,.11-.01,.22,.45,1.15,1.27,1.85,1.58,1.02,.45,1.54,.68,2.56,1.15,.7,.32,1.93,.47,2.44,.35,.01,.03,.02,.05,.03,.08-.5,.16-1.33,.88-1.6,1.47-3.33,7.14-4.99,10.72-8.32,17.86-.28,.59-.34,1.67-.18,2.14-.03,0-.04,.01-.07,.02-.2-.45-1-1.25-1.62-1.53-1.16-.53-1.74-.79-2.9-1.3-.21-.09-.81-.15-.97-.07-.03-.02-.04-.04-.07-.06,.14-.12,.24-.7,.18-.93-.85-4.46-1.34-6.7-2.43-11.17-.73-2.97-1.16-6.94-1.08-9.2Z"/>
  </g>
</svg>